<mxfile host="www.draw.io" modified="2019-12-17T17:22:40.765Z" agent="Mozilla/5.0 (Windows NT 10.0; Win64; x64) AppleWebKit/537.36 (KHTML, like Gecko) Chrome/78.0.3904.108 Safari/537.36" etag="Tk7oHPcX5sS75_8CMba9" version="12.4.2" type="github" pages="1">
  <diagram id="CppMuLXEz-YhtIaLtme5" name="第 1 页">
    <mxGraphModel dx="981" dy="514" grid="1" gridSize="4" guides="1" tooltips="1" connect="1" arrows="1" fold="1" page="1" pageScale="1" pageWidth="827" pageHeight="1169" math="0" shadow="0">
      <root>
        <mxCell id="0"/>
        <mxCell id="1" parent="0"/>
        <mxCell id="Hk4CvYtxmgZ1zVNIYbQp-56" value="" style="shape=partialRectangle;verticalLabelPosition=bottom;verticalAlign=top;html=1;shape=mxgraph.basic.rect;fillColor2=none;strokeWidth=1;size=20;indent=5;dashed=1;comic=0;labelBackgroundColor=none;fillColor=#bac8d3;fontSize=13;strokeColor=#23445d;top=0;" vertex="1" parent="1">
          <mxGeometry x="440" y="383" width="80" height="37" as="geometry"/>
        </mxCell>
        <mxCell id="Hk4CvYtxmgZ1zVNIYbQp-50" value="" style="shape=partialRectangle;verticalLabelPosition=bottom;verticalAlign=top;html=1;shape=mxgraph.basic.rect;fillColor2=none;strokeWidth=1;size=20;indent=5;dashed=1;comic=0;labelBackgroundColor=none;fillColor=#bac8d3;fontSize=13;strokeColor=#23445d;top=0;" vertex="1" parent="1">
          <mxGeometry x="194" y="383" width="84.5" height="65" as="geometry"/>
        </mxCell>
        <mxCell id="Hk4CvYtxmgZ1zVNIYbQp-47" value="" style="shape=partialRectangle;verticalLabelPosition=bottom;verticalAlign=top;html=1;shape=mxgraph.basic.rect;fillColor2=none;strokeWidth=1;size=20;indent=5;dashed=1;comic=0;labelBackgroundColor=none;fillColor=#bac8d3;fontSize=13;strokeColor=#23445d;bottom=0;" vertex="1" parent="1">
          <mxGeometry x="115" y="356" width="405" height="29" as="geometry"/>
        </mxCell>
        <mxCell id="Hk4CvYtxmgZ1zVNIYbQp-3" value="&lt;font color=&quot;#666666&quot;&gt;表演枚举[0]&lt;/font&gt;" style="rounded=1;whiteSpace=wrap;html=1;fillColor=#f8cecc;strokeColor=#b85450;" vertex="1" parent="1">
          <mxGeometry x="120" y="360" width="70" height="20" as="geometry"/>
        </mxCell>
        <mxCell id="Hk4CvYtxmgZ1zVNIYbQp-8" value="&lt;font color=&quot;#666666&quot;&gt;表演枚举[1]&lt;/font&gt;" style="rounded=1;whiteSpace=wrap;html=1;fillColor=#f8cecc;strokeColor=#b85450;" vertex="1" parent="1">
          <mxGeometry x="120" y="392" width="70" height="20" as="geometry"/>
        </mxCell>
        <mxCell id="Hk4CvYtxmgZ1zVNIYbQp-9" value="&lt;font color=&quot;#666666&quot;&gt;表演枚举[2]&lt;/font&gt;" style="rounded=1;whiteSpace=wrap;html=1;fillColor=#f8cecc;strokeColor=#b85450;" vertex="1" parent="1">
          <mxGeometry x="120" y="424" width="70" height="20" as="geometry"/>
        </mxCell>
        <mxCell id="Hk4CvYtxmgZ1zVNIYbQp-10" value="&lt;font color=&quot;#666666&quot;&gt;...&lt;/font&gt;" style="rounded=1;whiteSpace=wrap;html=1;fillColor=#f8cecc;strokeColor=#b85450;" vertex="1" parent="1">
          <mxGeometry x="120" y="456" width="70" height="20" as="geometry"/>
        </mxCell>
        <mxCell id="Hk4CvYtxmgZ1zVNIYbQp-11" value="&lt;font color=&quot;#666666&quot;&gt;玩家状态[0]&lt;/font&gt;" style="rounded=1;whiteSpace=wrap;html=1;fillColor=#dae8fc;strokeColor=#6c8ebf;" vertex="1" parent="1">
          <mxGeometry x="201" y="360" width="70" height="20" as="geometry"/>
        </mxCell>
        <mxCell id="Hk4CvYtxmgZ1zVNIYbQp-12" value="&lt;font color=&quot;#666666&quot;&gt;玩家状态[1]&lt;/font&gt;" style="rounded=1;whiteSpace=wrap;html=1;fillColor=#dae8fc;strokeColor=#6c8ebf;" vertex="1" parent="1">
          <mxGeometry x="200.99999999999986" y="392" width="70" height="20" as="geometry"/>
        </mxCell>
        <mxCell id="Hk4CvYtxmgZ1zVNIYbQp-13" value="&lt;font color=&quot;#666666&quot;&gt;玩家状态[2]&lt;/font&gt;" style="rounded=1;whiteSpace=wrap;html=1;fillColor=#dae8fc;strokeColor=#6c8ebf;" vertex="1" parent="1">
          <mxGeometry x="200.99999999999986" y="424" width="70" height="20" as="geometry"/>
        </mxCell>
        <mxCell id="Hk4CvYtxmgZ1zVNIYbQp-14" value="&lt;font color=&quot;#666666&quot;&gt;...&lt;/font&gt;" style="rounded=1;whiteSpace=wrap;html=1;fillColor=#dae8fc;strokeColor=#6c8ebf;" vertex="1" parent="1">
          <mxGeometry x="200.99999999999986" y="456" width="70" height="20" as="geometry"/>
        </mxCell>
        <mxCell id="Hk4CvYtxmgZ1zVNIYbQp-15" value="&lt;font color=&quot;#666666&quot;&gt;玩家状态[n]&lt;/font&gt;" style="rounded=1;whiteSpace=wrap;html=1;fillColor=#dae8fc;strokeColor=#6c8ebf;" vertex="1" parent="1">
          <mxGeometry x="201.00000000000009" y="488" width="70" height="20" as="geometry"/>
        </mxCell>
        <mxCell id="Hk4CvYtxmgZ1zVNIYbQp-16" value="&lt;font color=&quot;#666666&quot;&gt;表演枚举[n]&lt;br&gt;&lt;/font&gt;" style="rounded=1;whiteSpace=wrap;html=1;fillColor=#f8cecc;strokeColor=#b85450;" vertex="1" parent="1">
          <mxGeometry x="120" y="488" width="70" height="20" as="geometry"/>
        </mxCell>
        <mxCell id="Hk4CvYtxmgZ1zVNIYbQp-17" value="&lt;font color=&quot;#666666&quot;&gt;表演列表&lt;/font&gt;" style="text;html=1;strokeColor=none;fillColor=none;align=center;verticalAlign=middle;whiteSpace=wrap;rounded=0;comic=0;labelBorderColor=none;labelBackgroundColor=none;fontStyle=1" vertex="1" parent="1">
          <mxGeometry x="117.5" y="520" width="75" height="20" as="geometry"/>
        </mxCell>
        <mxCell id="Hk4CvYtxmgZ1zVNIYbQp-18" value="&lt;font color=&quot;#666666&quot;&gt;玩家状态列表&lt;/font&gt;" style="text;html=1;strokeColor=none;fillColor=none;align=center;verticalAlign=middle;whiteSpace=wrap;rounded=0;fontStyle=1" vertex="1" parent="1">
          <mxGeometry x="197.5" y="520" width="82.5" height="20" as="geometry"/>
        </mxCell>
        <mxCell id="Hk4CvYtxmgZ1zVNIYbQp-19" value="&lt;font color=&quot;#666666&quot;&gt;技能[0]&lt;/font&gt;" style="rounded=1;whiteSpace=wrap;html=1;fillColor=#d5e8d4;strokeColor=#82b366;" vertex="1" parent="1">
          <mxGeometry x="283" y="360" width="70" height="20" as="geometry"/>
        </mxCell>
        <mxCell id="Hk4CvYtxmgZ1zVNIYbQp-20" value="&lt;font color=&quot;#666666&quot;&gt;技能[1]&lt;/font&gt;" style="rounded=1;whiteSpace=wrap;html=1;fillColor=#d5e8d4;strokeColor=#82b366;" vertex="1" parent="1">
          <mxGeometry x="282.99999999999994" y="392" width="70" height="20" as="geometry"/>
        </mxCell>
        <mxCell id="Hk4CvYtxmgZ1zVNIYbQp-21" value="&lt;font color=&quot;#666666&quot;&gt;技能[2]&lt;/font&gt;" style="rounded=1;whiteSpace=wrap;html=1;fillColor=#d5e8d4;strokeColor=#82b366;" vertex="1" parent="1">
          <mxGeometry x="282.99999999999994" y="424" width="70" height="20" as="geometry"/>
        </mxCell>
        <mxCell id="Hk4CvYtxmgZ1zVNIYbQp-22" value="&lt;font color=&quot;#666666&quot;&gt;...&lt;/font&gt;" style="rounded=1;whiteSpace=wrap;html=1;fillColor=#d5e8d4;strokeColor=#82b366;" vertex="1" parent="1">
          <mxGeometry x="282.99999999999994" y="456" width="70" height="20" as="geometry"/>
        </mxCell>
        <mxCell id="Hk4CvYtxmgZ1zVNIYbQp-23" value="&lt;font color=&quot;#666666&quot;&gt;技能[n]&lt;/font&gt;" style="rounded=1;whiteSpace=wrap;html=1;fillColor=#d5e8d4;strokeColor=#82b366;" vertex="1" parent="1">
          <mxGeometry x="283.00000000000006" y="488" width="70" height="20" as="geometry"/>
        </mxCell>
        <mxCell id="Hk4CvYtxmgZ1zVNIYbQp-24" value="&lt;font color=&quot;#666666&quot;&gt;技能列表&lt;/font&gt;" style="text;html=1;strokeColor=none;fillColor=none;align=center;verticalAlign=middle;whiteSpace=wrap;rounded=0;fontStyle=1" vertex="1" parent="1">
          <mxGeometry x="276.75" y="520" width="82.5" height="20" as="geometry"/>
        </mxCell>
        <mxCell id="Hk4CvYtxmgZ1zVNIYbQp-26" value="&lt;font color=&quot;#666666&quot;&gt;Buff[0]&lt;/font&gt;" style="rounded=1;whiteSpace=wrap;html=1;fillColor=#f5f5f5;strokeColor=#666666;fontColor=#333333;" vertex="1" parent="1">
          <mxGeometry x="364" y="360" width="70" height="20" as="geometry"/>
        </mxCell>
        <mxCell id="Hk4CvYtxmgZ1zVNIYbQp-27" value="&lt;font color=&quot;#666666&quot;&gt;Buff[1]&lt;/font&gt;" style="rounded=1;whiteSpace=wrap;html=1;fillColor=#f5f5f5;strokeColor=#666666;fontColor=#333333;" vertex="1" parent="1">
          <mxGeometry x="363.9999999999998" y="392" width="70" height="20" as="geometry"/>
        </mxCell>
        <mxCell id="Hk4CvYtxmgZ1zVNIYbQp-28" value="&lt;font color=&quot;#666666&quot;&gt;Buff[2]&lt;/font&gt;" style="rounded=1;whiteSpace=wrap;html=1;fillColor=#f5f5f5;strokeColor=#666666;fontColor=#333333;" vertex="1" parent="1">
          <mxGeometry x="363.9999999999998" y="424" width="70" height="20" as="geometry"/>
        </mxCell>
        <mxCell id="Hk4CvYtxmgZ1zVNIYbQp-29" value="&lt;font color=&quot;#666666&quot;&gt;...&lt;/font&gt;" style="rounded=1;whiteSpace=wrap;html=1;fillColor=#f5f5f5;strokeColor=#666666;fontColor=#333333;" vertex="1" parent="1">
          <mxGeometry x="363.9999999999998" y="456" width="70" height="20" as="geometry"/>
        </mxCell>
        <mxCell id="Hk4CvYtxmgZ1zVNIYbQp-30" value="&lt;font color=&quot;#666666&quot;&gt;Buff[n]&lt;/font&gt;" style="rounded=1;whiteSpace=wrap;html=1;fillColor=#f5f5f5;strokeColor=#666666;fontColor=#333333;" vertex="1" parent="1">
          <mxGeometry x="363.99999999999983" y="488" width="70" height="20" as="geometry"/>
        </mxCell>
        <mxCell id="Hk4CvYtxmgZ1zVNIYbQp-31" value="&lt;font color=&quot;#666666&quot;&gt;Buff列表&lt;/font&gt;" style="text;html=1;strokeColor=none;fillColor=none;align=center;verticalAlign=middle;whiteSpace=wrap;rounded=0;fontStyle=1" vertex="1" parent="1">
          <mxGeometry x="356.25" y="520" width="82.5" height="20" as="geometry"/>
        </mxCell>
        <mxCell id="Hk4CvYtxmgZ1zVNIYbQp-32" value="&lt;p&gt;&lt;font&gt;&lt;font color=&quot;#666666&quot; style=&quot;font-size: 13px&quot;&gt;易于设计拓展，但&lt;/font&gt;&lt;font color=&quot;#cc0000&quot; style=&quot;font-size: 20px&quot;&gt;可读性差&lt;/font&gt;&lt;font color=&quot;#666666&quot; style=&quot;font-size: 13px&quot;&gt;的回合数据&lt;/font&gt;&lt;/font&gt;&lt;/p&gt;" style="text;html=1;strokeColor=none;fillColor=none;align=center;verticalAlign=middle;whiteSpace=wrap;rounded=0;comic=0;fontSize=13;" vertex="1" parent="1">
          <mxGeometry x="194" y="292" width="252" height="20" as="geometry"/>
        </mxCell>
        <mxCell id="Hk4CvYtxmgZ1zVNIYbQp-34" value="&lt;p&gt;&lt;span style=&quot;color: rgb(102 , 102 , 102) ; font-size: 13px&quot;&gt;由多达&lt;/span&gt;&lt;font style=&quot;font-size: 20px&quot; color=&quot;#cc0000&quot;&gt;20种&lt;/font&gt;&lt;span style=&quot;color: rgb(102 , 102 , 102) ; font-size: 13px&quot;&gt;表演数据列表组成&lt;/span&gt;&lt;/p&gt;" style="text;html=1;strokeColor=none;fillColor=none;align=center;verticalAlign=middle;whiteSpace=wrap;rounded=0;comic=0;" vertex="1" parent="1">
          <mxGeometry x="212.25" y="320.5" width="220" height="20" as="geometry"/>
        </mxCell>
        <mxCell id="Hk4CvYtxmgZ1zVNIYbQp-35" value="&lt;font color=&quot;#666666&quot;&gt;喊话[0]&lt;/font&gt;" style="rounded=1;whiteSpace=wrap;html=1;fillColor=#f9f7ed;strokeColor=#36393d;" vertex="1" parent="1">
          <mxGeometry x="445" y="360" width="70" height="20" as="geometry"/>
        </mxCell>
        <mxCell id="Hk4CvYtxmgZ1zVNIYbQp-36" value="&lt;font color=&quot;#666666&quot;&gt;喊话[1]&lt;/font&gt;" style="rounded=1;whiteSpace=wrap;html=1;fillColor=#f9f7ed;strokeColor=#36393d;" vertex="1" parent="1">
          <mxGeometry x="445" y="392" width="70" height="20" as="geometry"/>
        </mxCell>
        <mxCell id="Hk4CvYtxmgZ1zVNIYbQp-37" value="&lt;font color=&quot;#666666&quot;&gt;喊话[2]&lt;/font&gt;" style="rounded=1;whiteSpace=wrap;html=1;fillColor=#f9f7ed;strokeColor=#36393d;" vertex="1" parent="1">
          <mxGeometry x="445" y="424" width="70" height="20" as="geometry"/>
        </mxCell>
        <mxCell id="Hk4CvYtxmgZ1zVNIYbQp-38" value="&lt;font color=&quot;#666666&quot;&gt;...&lt;/font&gt;" style="rounded=1;whiteSpace=wrap;html=1;fillColor=#f9f7ed;strokeColor=#36393d;" vertex="1" parent="1">
          <mxGeometry x="445" y="456" width="70" height="20" as="geometry"/>
        </mxCell>
        <mxCell id="Hk4CvYtxmgZ1zVNIYbQp-39" value="&lt;font color=&quot;#666666&quot;&gt;喊话[n]&lt;/font&gt;" style="rounded=1;whiteSpace=wrap;html=1;fillColor=#f9f7ed;strokeColor=#36393d;" vertex="1" parent="1">
          <mxGeometry x="445" y="488" width="70" height="20" as="geometry"/>
        </mxCell>
        <mxCell id="Hk4CvYtxmgZ1zVNIYbQp-40" value="&lt;font color=&quot;#666666&quot;&gt;喊话列表&lt;/font&gt;" style="text;html=1;strokeColor=none;fillColor=none;align=center;verticalAlign=middle;whiteSpace=wrap;rounded=0;fontStyle=1" vertex="1" parent="1">
          <mxGeometry x="438.75" y="520" width="82.5" height="20" as="geometry"/>
        </mxCell>
        <mxCell id="Hk4CvYtxmgZ1zVNIYbQp-54" value="&lt;font style=&quot;font-size: 11px&quot;&gt;&lt;font color=&quot;#666666&quot; style=&quot;font-size: 11px&quot;&gt;[第1回合][1/n]表演[技能]&lt;br style=&quot;font-size: 11px&quot;&gt;&lt;div style=&quot;font-size: 11px&quot;&gt;&lt;/div&gt;纳兹(1-8)对伽吉鲁(2-1)释放技能:我燃起来了!(402205),&lt;br style=&quot;font-size: 11px&quot;&gt;且纳兹(1-8)新增Buff:我燃起来了!(4024),&lt;br style=&quot;font-size: 11px&quot;&gt;且纳兹(1-8)进行喊话：你搞什么呀?(1001007)&lt;br&gt;&lt;/font&gt;&lt;/font&gt;&lt;font color=&quot;#666666&quot; style=&quot;font-size: 11px&quot;&gt;&lt;font style=&quot;font-size: 11px&quot;&gt;&lt;br&gt;详细数据堆栈：&lt;br&gt;表演枚举[0]&lt;br&gt;&lt;/font&gt;&lt;/font&gt;&lt;span style=&quot;color: rgb(102 , 102 , 102) ; font-size: 11px&quot;&gt;玩家状态[0]&lt;br&gt;&lt;/span&gt;&lt;span style=&quot;color: rgb(102 , 102 , 102) ; font-size: 11px&quot;&gt;玩家状态[1]&lt;br&gt;&lt;/span&gt;&lt;span style=&quot;color: rgb(102 , 102 , 102) ; font-size: 11px&quot;&gt;玩家状态[2]&lt;br&gt;&lt;/span&gt;&lt;span style=&quot;color: rgb(102 , 102 , 102) ; font-size: 11px&quot;&gt;技能[0]&lt;br&gt;&lt;/span&gt;&lt;span style=&quot;color: rgb(102 , 102 , 102) ; font-size: 11px&quot;&gt;Buff[0]&lt;br&gt;&lt;/span&gt;&lt;span style=&quot;color: rgb(102 , 102 , 102) ; font-size: 11px&quot;&gt;喊话[0]&lt;/span&gt;&lt;font color=&quot;#666666&quot; style=&quot;font-size: 11px&quot;&gt;&lt;br&gt;&lt;/font&gt;" style="text;html=1;align=left;verticalAlign=middle;whiteSpace=wrap;rounded=1;shadow=1;comic=1;glass=0;fillColor=#dae8fc;strokeColor=#6c8ebf;arcSize=4;" vertex="1" parent="1">
          <mxGeometry x="532" y="345" width="256" height="204" as="geometry"/>
        </mxCell>
        <mxCell id="Hk4CvYtxmgZ1zVNIYbQp-59" value="" style="endArrow=none;dashed=1;html=1;fontSize=13;fontColor=#F8CECC;strokeColor=#23445D;" edge="1" parent="1">
          <mxGeometry width="50" height="50" relative="1" as="geometry">
            <mxPoint x="117.5" y="385" as="sourcePoint"/>
            <mxPoint x="192" y="385" as="targetPoint"/>
          </mxGeometry>
        </mxCell>
        <mxCell id="Hk4CvYtxmgZ1zVNIYbQp-60" value="" style="endArrow=none;dashed=1;html=1;fontSize=13;fontColor=#F8CECC;strokeColor=#23445D;entryX=0.802;entryY=1;entryDx=0;entryDy=0;entryPerimeter=0;" edge="1" parent="1" target="Hk4CvYtxmgZ1zVNIYbQp-47">
          <mxGeometry width="50" height="50" relative="1" as="geometry">
            <mxPoint x="280" y="385" as="sourcePoint"/>
            <mxPoint x="354.5" y="385" as="targetPoint"/>
          </mxGeometry>
        </mxCell>
        <mxCell id="Hk4CvYtxmgZ1zVNIYbQp-63" style="edgeStyle=orthogonalEdgeStyle;rounded=0;orthogonalLoop=1;jettySize=auto;html=1;entryX=0.932;entryY=0.01;entryDx=0;entryDy=0;entryPerimeter=0;strokeColor=#23445D;fontSize=13;fontColor=#F8CECC;curved=1;startArrow=classic;startFill=1;endArrow=none;endFill=0;" edge="1" parent="1" source="Hk4CvYtxmgZ1zVNIYbQp-54" target="Hk4CvYtxmgZ1zVNIYbQp-47">
          <mxGeometry relative="1" as="geometry">
            <mxPoint x="652" y="356" as="sourcePoint"/>
            <Array as="points">
              <mxPoint x="648" y="304"/>
              <mxPoint x="493" y="304"/>
            </Array>
          </mxGeometry>
        </mxCell>
        <mxCell id="Hk4CvYtxmgZ1zVNIYbQp-62" value="&lt;font color=&quot;#666666&quot;&gt;记录数据堆栈，解释战斗表演&lt;/font&gt;" style="text;html=1;align=center;verticalAlign=middle;whiteSpace=wrap;rounded=1;shadow=1;comic=0;glass=0;fillColor=#bac8d3;strokeColor=#23445d;fontStyle=1" vertex="1" parent="1">
          <mxGeometry x="546" y="304" width="200" height="28" as="geometry"/>
        </mxCell>
        <mxCell id="Hk4CvYtxmgZ1zVNIYbQp-65" value="&lt;p style=&quot;font-size: 13px&quot;&gt;&lt;font style=&quot;font-size: 13px&quot; color=&quot;#b3b3b3&quot;&gt;战斗播报控制台&lt;/font&gt;&lt;/p&gt;" style="text;html=1;strokeColor=none;fillColor=none;align=right;verticalAlign=middle;whiteSpace=wrap;rounded=0;comic=0;fontSize=13;" vertex="1" parent="1">
          <mxGeometry x="540" y="524" width="240" height="20" as="geometry"/>
        </mxCell>
      </root>
    </mxGraphModel>
  </diagram>
</mxfile>
